<svg width="14" height="14" viewBox="0 0 14 14" fill="none" xmlns="http://www.w3.org/2000/svg">
<path d="M7.58203 4.3737C7.58203 4.69586 7.32086 4.95703 6.9987 4.95703C6.67653 4.95703 6.41537 4.69586 6.41537 4.3737C6.41537 4.05153 6.67653 3.79036 6.9987 3.79036C7.32086 3.79036 7.58203 4.05153 7.58203 4.3737Z" fill="#24292E"/>
<path d="M5.83203 6.5612C5.83203 6.31957 6.02791 6.1237 6.26953 6.1237H7.14453C7.38616 6.1237 7.58203 6.31957 7.58203 6.5612V9.04037H8.01953C8.26116 9.04037 8.45703 9.23624 8.45703 9.47787C8.45703 9.71949 8.26116 9.91537 8.01953 9.91537H6.26953C6.02791 9.91537 5.83203 9.71949 5.83203 9.47787C5.83203 9.23624 6.02791 9.04037 6.26953 9.04037H6.70703V6.9987H6.26953C6.02791 6.9987 5.83203 6.80282 5.83203 6.5612Z" fill="#24292E"/>
<path fill-rule="evenodd" clip-rule="evenodd" d="M6.9987 0.582031C3.45487 0.582031 0.582031 3.45487 0.582031 6.9987C0.582031 10.5425 3.45487 13.4154 6.9987 13.4154C10.5425 13.4154 13.4154 10.5425 13.4154 6.9987C13.4154 3.45487 10.5425 0.582031 6.9987 0.582031ZM1.45703 6.9987C1.45703 3.93812 3.93812 1.45703 6.9987 1.45703C10.0593 1.45703 12.5404 3.93812 12.5404 6.9987C12.5404 10.0593 10.0593 12.5404 6.9987 12.5404C3.93812 12.5404 1.45703 10.0593 1.45703 6.9987Z" fill="#24292E"/>
</svg>
