<svg width="14" height="14" viewBox="0 0 14 14" fill="none" xmlns="http://www.w3.org/2000/svg">
<path d="M0.5 13.5H11.5" stroke="black" stroke-linecap="round" stroke-linejoin="round"/>
<path d="M6.5 10.0019L3.5 10.5419L4 7.50189L10.73 0.791892C10.823 0.698164 10.9336 0.623769 11.0554 0.573001C11.1773 0.522232 11.308 0.496094 11.44 0.496094C11.572 0.496094 11.7027 0.522232 11.8246 0.573001C11.9464 0.623769 12.057 0.698164 12.15 0.791892L13.21 1.85189C13.3037 1.94486 13.3781 2.05546 13.4289 2.17732C13.4797 2.29917 13.5058 2.42988 13.5058 2.56189C13.5058 2.6939 13.4797 2.82461 13.4289 2.94647C13.3781 3.06833 13.3037 3.17893 13.21 3.27189L6.5 10.0019Z" stroke="black" stroke-linecap="round" stroke-linejoin="round"/>
</svg>
