<svg width="14" height="14" viewBox="0 0 14 14" fill="none" xmlns="http://www.w3.org/2000/svg">
<path d="M7.4882 1.09041L9.0782 4.30041C9.11436 4.38188 9.17125 4.45246 9.24319 4.50509C9.31513 4.55773 9.3996 4.59059 9.4882 4.60041L12.9982 5.12041C13.0998 5.13347 13.1956 5.17518 13.2745 5.24066C13.3533 5.30615 13.4118 5.3927 13.4433 5.49022C13.4747 5.58774 13.4778 5.69219 13.4521 5.79139C13.4264 5.89058 13.373 5.98042 13.2982 6.05041L10.7682 8.56041C10.7036 8.62074 10.6552 8.69625 10.6272 8.78008C10.5993 8.86391 10.5927 8.9534 10.6082 9.04041L11.2182 12.5704C11.2359 12.6718 11.2247 12.7762 11.186 12.8716C11.1473 12.967 11.0825 13.0496 10.9992 13.11C10.9158 13.1705 10.8172 13.2063 10.7145 13.2134C10.6118 13.2206 10.5091 13.1987 10.4182 13.1504L7.2582 11.4804C7.17729 11.4407 7.08834 11.42 6.9982 11.42C6.90806 11.42 6.81912 11.4407 6.7382 11.4804L3.5782 13.1504C3.48729 13.1987 3.38464 13.2206 3.28193 13.2134C3.17922 13.2063 3.08057 13.1705 2.99722 13.11C2.91386 13.0496 2.84914 12.967 2.81042 12.8716C2.7717 12.7762 2.76054 12.6718 2.7782 12.5704L3.3882 9.00041C3.40366 8.9134 3.39712 8.82391 3.36918 8.74008C3.34123 8.65625 3.29277 8.58074 3.2282 8.52041L0.668202 6.05041C0.592465 5.9785 0.539202 5.88618 0.514866 5.78462C0.49053 5.68306 0.496166 5.57663 0.531089 5.47821C0.566013 5.37979 0.628726 5.2936 0.711633 5.2301C0.794539 5.16659 0.894082 5.12849 0.998202 5.12041L4.5082 4.60041C4.5968 4.59059 4.68128 4.55773 4.75322 4.50509C4.82515 4.45246 4.88204 4.38188 4.9182 4.30041L6.5082 1.09041C6.5515 0.996916 6.62064 0.917763 6.70747 0.862291C6.79429 0.806819 6.89517 0.777344 6.9982 0.777344C7.10123 0.777344 7.20211 0.806819 7.28894 0.862291C7.37576 0.917763 7.4449 0.996916 7.4882 1.09041V1.09041Z" stroke="#000001" stroke-linecap="round" stroke-linejoin="round"/>
</svg>
