<svg width="27" height="27" viewBox="0 0 27 27" fill="none" xmlns="http://www.w3.org/2000/svg">
<g clip-path="url(#clip0_10480_4057)">
<path d="M18.1466 18.9899H19.7762V20.3744H15.7022V16.2209H17.0602V18.1108C18.3028 17.0932 19.0972 15.5425 19.0972 13.7981C19.0972 10.9806 17.0194 8.64771 14.3441 8.3085V6.91016C17.7732 7.25628 20.4552 10.2053 20.4552 13.7981C20.4552 15.8679 19.559 17.7231 18.1466 18.9899ZM8.23302 13.7981C8.23302 12.0536 9.02747 10.496 10.2701 9.48533V11.3752H11.6281V7.22167H7.55401V8.60617H9.18364C7.7713 9.87299 6.875 11.7282 6.875 13.7981C6.875 17.3908 9.5571 20.3398 12.9861 20.686V19.2876C10.3108 18.9484 8.23302 16.6155 8.23302 13.7981ZM16.5441 11.1052L12.7009 15.0233L10.7793 13.0643L9.82191 14.0403L12.7009 16.9755L17.5015 12.0813L16.5441 11.1052Z" fill="white"/>
</g>
<circle cx="13.6673" cy="13.638" r="12.6843" stroke="white" stroke-width="1.29816"/>
<defs>
<clipPath id="clip0_10480_4057">
<rect width="16.2963" height="16.614" fill="white" transform="translate(5.51758 5.48828)"/>
</clipPath>
</defs>
</svg>
