<svg width="14" height="14" viewBox="0 0 14 14" fill="none" xmlns="http://www.w3.org/2000/svg">
<g clip-path="url(#clip0_10516_8389)">
<path d="M9.0733 9.49301H9.88812V10.1853H7.85108V8.10851H8.53009V9.05344C9.15139 8.54463 9.54861 7.76931 9.54861 6.89707C9.54861 5.48834 8.50972 4.3219 7.17207 4.1523V3.45312C8.88658 3.62619 10.2276 5.10068 10.2276 6.89707C10.2276 7.93199 9.77948 8.85961 9.0733 9.49301ZM4.11651 6.89707C4.11651 6.02484 4.51373 5.24606 5.13503 4.74071V5.68563H5.81404V3.60888H3.77701V4.30113H4.59182C3.88565 4.93454 3.4375 5.86216 3.4375 6.89707C3.4375 8.69346 4.77855 10.168 6.49306 10.341V9.64185C5.1554 9.47225 4.11651 8.3058 4.11651 6.89707ZM8.27207 5.55065L6.35046 7.50972L5.38966 6.53018L4.91096 7.01822L6.35046 8.48579L8.75077 6.03868L8.27207 5.55065Z" fill="white"/>
</g>
<circle cx="6.83464" cy="6.81901" r="6.01759" stroke="white" stroke-width="1.29816"/>
<defs>
<clipPath id="clip0_10516_8389">
<rect x="2.75781" y="2.74219" width="8.14815" height="8.30701" rx="4" fill="white"/>
</clipPath>
</defs>
</svg>
